<svg width="394" height="420" viewBox="0 0 394 420" fill="none" xmlns="http://www.w3.org/2000/svg">
<rect x="131.25" width="52.5" height="393.75" fill="white"/>
<rect x="78.75" y="183.75" width="26.25" height="131.25" fill="white"/>
<rect x="262.5" y="367.5" width="26.25" height="26.25" fill="white"/>
<rect x="105" y="236.25" width="236.25" height="105" fill="white"/>
<rect x="341.25" y="288.75" width="26.25" height="52.5" fill="white"/>
<rect x="367.5" y="157.5" width="26.25" height="131.25" fill="white"/>
<rect x="315" y="131.25" width="52.5" height="157.5" fill="white"/>
<rect x="315" y="157.5" width="26.25" height="26.25" fill="white"/>
<rect x="262.5" y="105" width="26.25" height="78.75" fill="white"/>
<rect x="236.25" y="236.25" width="26.25" height="105" fill="white"/>
<rect x="288.75" y="236.25" width="26.25" height="105" fill="white"/>
<rect x="315" y="341.25" width="26.25" height="78.75" fill="white"/>
<rect x="288.75" y="393.75" width="26.25" height="26.25" fill="white"/>
<rect x="131.25" y="393.75" width="131.25" height="26.25" fill="white"/>
<rect x="131.25" y="367.5" width="26.25" height="26.25" fill="white"/>
<rect x="105" y="341.25" width="26.25" height="26.25" fill="white"/>
<rect x="78.75" y="315" width="26.25" height="26.25" fill="white"/>
<rect x="52.5" y="262.5" width="26.25" height="52.5" fill="white"/>
<rect x="26.25" y="236.25" width="26.25" height="26.25" fill="white"/>
<rect y="183.75" width="26.25" height="52.5" fill="white"/>
<rect x="26.25" y="157.5" width="52.5" height="105" fill="white"/>
<rect x="183.75" y="105" width="131.25" height="288.75" fill="white"/>
<rect x="183.75" y="26.25" width="26.25" height="157.5" fill="white"/>
<rect x="105" y="26.25" width="26.25" height="236.25" fill="white"/>
<rect x="131.25" width="52.5" height="26.25" fill="black"/>
<rect x="78.75" y="183.75" width="26.25" height="26.25" fill="black"/>
<rect x="262.5" y="367.5" width="26.25" height="26.25" fill="black"/>
<rect x="183.75" y="236.25" width="26.25" height="105" fill="black"/>
<rect x="341.25" y="288.75" width="26.25" height="52.5" fill="black"/>
<rect x="367.5" y="157.5" width="26.25" height="131.25" fill="black"/>
<rect x="315" y="131.25" width="52.5" height="26.25" fill="black"/>
<rect x="315" y="157.5" width="26.25" height="26.25" fill="black"/>
<rect x="262.5" y="105" width="26.25" height="78.75" fill="black"/>
<rect x="236.25" y="236.25" width="26.25" height="105" fill="black"/>
<rect x="288.75" y="236.25" width="26.25" height="105" fill="black"/>
<rect x="315" y="341.25" width="26.25" height="78.75" fill="black"/>
<rect x="288.75" y="393.75" width="26.25" height="26.25" fill="black"/>
<rect x="131.25" y="393.75" width="131.25" height="26.25" fill="black"/>
<rect x="131.25" y="367.5" width="26.25" height="26.25" fill="black"/>
<rect x="105" y="341.25" width="26.25" height="26.25" fill="black"/>
<rect x="78.75" y="315" width="26.25" height="26.25" fill="black"/>
<rect x="52.5" y="262.5" width="26.25" height="52.5" fill="black"/>
<rect x="26.25" y="236.25" width="26.25" height="26.25" fill="black"/>
<rect y="183.75" width="26.25" height="52.5" fill="black"/>
<rect x="26.25" y="157.5" width="52.5" height="26.25" fill="black"/>
<rect x="183.75" y="105" width="131.25" height="26.25" fill="black"/>
<rect x="183.75" y="26.25" width="26.25" height="157.5" fill="black"/>
<rect x="105" y="26.25" width="26.25" height="236.25" fill="black"/>
</svg>
