<svg width="40" height="40" viewBox="0 0 40 40" fill="none" xmlns="http://www.w3.org/2000/svg">
<path d="M30.625 16.4407H9.375C8.78819 16.4407 8.3125 16.9163 8.3125 17.5032V32.3782C8.3125 32.965 8.78819 33.4407 9.375 33.4407H30.625C31.2118 33.4407 31.6875 32.965 31.6875 32.3782V17.5032C31.6875 16.9163 31.2118 16.4407 30.625 16.4407Z" stroke="black" stroke-width="1.5" stroke-linecap="round" stroke-linejoin="round"/>
<path d="M14.6875 16.1218V11.8718C14.6875 10.4629 15.2472 9.11161 16.2435 8.11532C17.2398 7.11903 18.591 6.55933 20 6.55933C21.409 6.55933 22.7602 7.11903 23.7565 8.11532C24.7528 9.11161 25.3125 10.4629 25.3125 11.8718V16.1218" stroke="black" stroke-width="1.5" stroke-linecap="round" stroke-linejoin="round"/>
<path opacity="0.9" d="M21.2756 23.6656C21.2756 22.9615 20.7047 22.3906 20.0006 22.3906C19.2964 22.3906 18.7256 22.9615 18.7256 23.6656V26.2156C18.7256 26.9198 19.2964 27.4906 20.0006 27.4906C20.7047 27.4906 21.2756 26.9198 21.2756 26.2156V23.6656Z" fill="black"/>
</svg>
